name analog
datacolumns 19
datarows 22
range 0.3405 0.35100000000000003
endheader
time	ground_force_vx	ground_force_vy	ground_force_vz	ground_force_px	ground_force_py	ground_force_pz	l_ground_force_vx	l_ground_force_vy	l_ground_force_vz	l_ground_force_px	l_ground_force_py	l_ground_force_pz	ground_torque_x	ground_torque_y	ground_torque_z	l_ground_torque_x	l_ground_torque_y	l_ground_torque_z
0.3405	-0.0	-0.0	-0.0	-0.0	-0.0	-0.0	3.589183568954468	3.7485179901123047	-809.8084716796875	-0.0	-0.0	-0.0	-0.0	-0.0	-0.0	276753.34375	-30104.8125	642.4865112304688
0.341	-0.0	-0.0	-0.0	-0.0	-0.0	-0.0	3.879656791687012	3.700170516967773	-809.5861206054688	-0.0	-0.0	-0.0	-0.0	-0.0	-0.0	276622.78125	-30236.6015625	583.4136352539062
0.3415	-0.0	-0.0	-0.0	-0.0	-0.0	-0.0	3.564550876617432	3.155345916748047	-809.7141723632812	-0.0	-0.0	-0.0	-0.0	-0.0	-0.0	276935.25	-30502.5703125	518.4055786132812
0.342	-0.0	-0.0	-0.0	-0.0	-0.0	-0.0	3.870938777923584	2.2889506816864014	-808.7314453125	-0.0	-0.0	-0.0	-0.0	-0.0	-0.0	276544.375	-30417.259765625	494.17822265625
0.3425	-0.0	-0.0	-0.0	-0.0	-0.0	-0.0	3.3472604751586914	1.904479742050171	-809.9039306640625	-0.0	-0.0	-0.0	-0.0	-0.0	-0.0	277028.625	-30509.298828125	415.6499328613281
0.343	-0.0	-0.0	-0.0	-0.0	-0.0	-0.0	3.4198765754699707	1.5663385391235352	-809.9390869140625	-0.0	-0.0	-0.0	-0.0	-0.0	-0.0	277395.03125	-30716.6328125	496.22503662109375
0.3435	-0.0	-0.0	-0.0	-0.0	-0.0	-0.0	3.202975273132324	1.7200136184692385	-811.2996826171875	-0.0	-0.0	-0.0	-0.0	-0.0	-0.0	277675.71875	-30553.72265625	507.0034790039063
0.34400000000000003	-0.0	-0.0	-0.0	-0.0	-0.0	-0.0	3.2888994216918945	2.440307140350342	-813.2001342773438	-0.0	-0.0	-0.0	-0.0	-0.0	-0.0	278417.21875	-30802.66796875	477.5835266113281
0.34450000000000003	-0.0	-0.0	-0.0	-0.0	-0.0	-0.0	3.492661952972412	3.202308654785156	-815.837646484375	-0.0	-0.0	-0.0	-0.0	-0.0	-0.0	279337.875	-30853.103515625	535.1242065429688
0.34500000000000003	-0.0	-0.0	-0.0	-0.0	-0.0	-0.0	3.6206109523773193	3.9475855827331534	-816.4466552734375	-0.0	-0.0	-0.0	-0.0	-0.0	-0.0	279779.3125	-30783.572265625	468.6255493164063
0.34550000000000003	-0.0	-0.0	-0.0	-0.0	-0.0	-0.0	3.454028844833374	4.432615280151367	-817.5599365234375	-0.0	-0.0	-0.0	-0.0	-0.0	-0.0	280335.5625	-30828.9453125	442.9908447265625
0.34600000000000003	-0.0	-0.0	-0.0	-0.0	-0.0	-0.0	3.5317790508270264	4.863117694854736	-819.4588623046875	-0.0	-0.0	-0.0	-0.0	-0.0	-0.0	281150.84375	-30486.01953125	394.9479370117188
0.34650000000000003	-0.0	-0.0	-0.0	-0.0	-0.0	-0.0	2.90055775642395	5.161025047302246	-820.83544921875	-0.0	-0.0	-0.0	-0.0	-0.0	-0.0	281601.28125	-30371.326171875	353.7496337890625
0.34700000000000003	-0.0	-0.0	-0.0	-0.0	-0.0	-0.0	2.212925672531128	5.277778625488281	-819.2417602539062	-0.0	-0.0	-0.0	-0.0	-0.0	-0.0	281829.0	-29722.591796875	12.512341499328612
0.34750000000000003	-0.0	-0.0	-0.0	-0.0	-0.0	-0.0	0.7556481957435608	5.084616661071777	-819.0255126953125	-0.0	-0.0	-0.0	-0.0	-0.0	-0.0	281638.0	-29345.830078125	-431.8733520507813
0.34800000000000003	-0.0	-0.0	-0.0	-0.0	-0.0	-0.0	-0.3421147167682647	4.109134674072266	-819.392333984375	-0.0	-0.0	-0.0	-0.0	-0.0	-0.0	281378.0	-29481.3671875	-620.747314453125
0.34850000000000003	-0.0	-0.0	-0.0	-0.0	-0.0	-0.0	-0.7475312352180481	3.831594228744507	-818.8272705078125	-0.0	-0.0	-0.0	-0.0	-0.0	-0.0	281829.75	-29176.97265625	-883.8099365234375
0.34900000000000003	-0.0	-0.0	-0.0	-0.0	-0.0	-0.0	-0.2795175611972809	4.066412448883057	-820.5206298828125	-0.0	-0.0	-0.0	-0.0	-0.0	-0.0	282358.65625	-29385.61328125	-882.1830444335938
0.34950000000000003	-0.0	-0.0	-0.0	-0.0	-0.0	-0.0	0.3377546966075897	4.578968524932861	-823.3668212890625	-0.0	-0.0	-0.0	-0.0	-0.0	-0.0	283307.34375	-29451.23046875	-668.3482666015625
0.35000000000000003	-0.0	-0.0	-0.0	-0.0	-0.0	-0.0	0.5836756825447083	4.652950763702393	-825.529296875	-0.0	-0.0	-0.0	-0.0	-0.0	-0.0	284216.375	-29656.58203125	-776.4102783203125
0.35050000000000003	-0.0	-0.0	-0.0	-0.0	-0.0	-0.0	0.9413997530937196	5.549784183502197	-825.587158203125	-0.0	-0.0	-0.0	-0.0	-0.0	-0.0	284390.46875	-29824.57421875	-739.5218505859375
0.35100000000000003	-0.0	-0.0	-0.0	-0.0	-0.0	-0.0	0.6012965440750122	5.407215595245361	-828.2650146484375	-0.0	-0.0	-0.0	-0.0	-0.0	-0.0	284954.21875	-29875.09375	-799.1279907226562
